<svg xmlns="http://www.w3.org/2000/svg" width="74.998" height="75" viewBox="0 0 74.998 75">
  <g id="electric_tower" data-name="electric tower" transform="translate(-672 -288)">
    <path id="Path_1427" data-name="Path 1427" d="M724.227,348.668v-.012l0-.007h0l-3.3-18.7v0l-.007-.04,0,0-3.3-18.717,0-.019-.23-1.289h23.138a1.563,1.563,0,0,0,.548-3.026l-23.986-8.993v-6.731h3.126a1.562,1.562,0,0,0,0-3.124h-25a1.562,1.562,0,1,0,0,3.124h3.124v6.731l-23.984,8.993a1.563,1.563,0,0,0,.546,3.026h23.14l-.23,1.289,0,.019L694.5,329.9l0,0-.007.04v0l-3.3,18.7h0l0,.007,0,.012-2.2,12.5a1.56,1.56,0,0,0,1.266,1.812,1.587,1.587,0,0,0,.274.023,1.559,1.559,0,0,0,1.535-1.291l.384-2.173,13.7-4.064v5.965a1.562,1.562,0,1,0,3.124,0v-5.965l13.7,4.064.384,2.173A1.559,1.559,0,0,0,724.893,363a1.54,1.54,0,0,0,.272-.023,1.561,1.561,0,0,0,1.268-1.812Zm-10.019-38.794.124.7-5.062,2.58v-3.277Zm-8.672-3.124,2.17-1.3,2.173,1.3Zm.609,3.124v3.277l-5.063-2.58.124-.7Zm0,12.891-4.788-2.07,4.788-2.442Zm3.124-4.512,4.788,2.442-4.788,2.07Zm-3.124,14.058-5.934-2.227,5.934-2.564Zm3.124-4.791,5.934,2.564-5.934,2.227Zm-3.124,14.292-7.071-2.341,7.071-2.651Zm3.124-4.992,7.071,2.651-7.071,2.341Zm10.54,4.8.886,5.016-8.018-2.655Zm-7.652-7.05,6.012-2.255.851,4.828Zm-.511-9.424,4.884-2.109.806,4.57Zm-.5-9.438,3.752-1.915.743,4.207Zm-.4-12.077,3.213-1.929v3.856Zm-.865-3.127-2.173,1.3-2.17-1.3Zm-4.343-3.124,2.17-1.3,2.173,1.3Zm5.208-3.124,3.213-1.929v3.856Zm-3.037-1.823-2.17-1.3h4.343Zm-3.035,1.823-3.213,1.927v-3.856Zm0,9.375-3.213,1.927V301.7Zm-4.155,10.162,3.752,1.915-4.5,2.292Zm-1.631,9.244,4.884,2.109-5.691,2.461Zm-1.638,9.279,6.012,2.255-6.863,2.573Zm-1.641,9.3,7.132,2.36-8.018,2.655Zm10.54,4.523v5.147l-8.2-2.431Zm3.124,0,8.2,2.716-8.2,2.431Zm7.812-39.389v-5.559L731.9,306.75Zm-18.75-5.559v5.559h-14.82Zm-4.371,49.744,8.25,2.445-9.162,2.716Zm19.245,2.445,8.25-2.445.912,5.161Z" transform="translate(1.791)" fill="#0097cc"/>
    <path id="Path_1428" data-name="Path 1428" d="M709.6,298h-9.375a1.562,1.562,0,1,0,0,3.124H709.6a1.562,1.562,0,0,0,0-3.124Z" transform="translate(35.832 13.438)" fill="#0097cc"/>
    <path id="Path_1429" data-name="Path 1429" d="M704.686,300h-3.124a1.562,1.562,0,1,0,0,3.124h3.124a1.562,1.562,0,1,0,0-3.124Z" transform="translate(37.624 16.125)" fill="#0097cc"/>
    <path id="Path_1430" data-name="Path 1430" d="M682.936,298h-9.375a1.562,1.562,0,0,0,0,3.124h9.375a1.562,1.562,0,1,0,0-3.124Z" transform="translate(0 13.438)" fill="#0097cc"/>
    <path id="Path_1431" data-name="Path 1431" d="M678.021,300h-3.127a1.562,1.562,0,0,0,0,3.124h3.127a1.562,1.562,0,0,0,0-3.124Z" transform="translate(1.791 16.125)" fill="#0097cc"/>
  </g>
</svg>
