<svg xmlns="http://www.w3.org/2000/svg" width="36.525" height="44.133" viewBox="0 0 36.525 44.133">
  <g id="app" transform="translate(-162.758 -288)">
    <path id="Path_1446" data-name="Path 1446" d="M175.608,317.425a2.758,2.758,0,1,0-2.758,2.758A2.758,2.758,0,0,0,175.608,317.425Zm-2.758.919a.919.919,0,1,1,.92-.919A.92.92,0,0,1,172.849,318.344Z" transform="translate(2.78 10.111)" fill="#0097cc"/>
    <path id="Path_1447" data-name="Path 1447" d="M196.28,314.778l-.411.183c-2.1-10.995-4.223-15.087-4.485-15.564a3.038,3.038,0,0,0-1.963-1.677v-6.042A3.678,3.678,0,0,0,185.744,288H166.436a3.678,3.678,0,0,0-3.678,3.678v36.776a3.678,3.678,0,0,0,3.678,3.678h19.308a3.678,3.678,0,0,0,3.677-3.678V325.9l9.862-4.411ZM188.3,299.563a1.034,1.034,0,0,1,.428-.1,1.127,1.127,0,0,1,1,.721l.019.043.023.04c.022.039,2.212,3.944,4.377,15.462l-11.123,4.975-.559-.616-10.473-5.672a1.464,1.464,0,0,1-.585-2,1.5,1.5,0,0,1,1.32-.779,1.453,1.453,0,0,1,.706.179l4.591,2.488-7.572-16.929a1.092,1.092,0,0,1,.019-.874,1.321,1.321,0,0,1,1.24-.819,1.22,1.22,0,0,1,1.121.629l3.23,7.221h0l1.547,3.46h0l.005.017a.92.92,0,0,0,1.68-.752l-.008-.014h0l-1.567-3.5a1.075,1.075,0,0,1,.055-.869,1.571,1.571,0,0,1,.743-.753l.083-.032.044-.018a1.5,1.5,0,0,1,.582-.113,1.256,1.256,0,0,1,1.159.6l1.565,3.5h0l.006.015a.919.919,0,0,0,1.678-.75l-.007-.015h0l-.934-2.087h0a1.386,1.386,0,0,1,.811-1.627,1.494,1.494,0,0,1,.6-.12,1.251,1.251,0,0,1,1.153.6l.415.93h0l.517,1.157h0l.006.015a.92.92,0,0,0,1.68-.75l-.008-.015h0l-.519-1.157h0C187.13,300.746,187.623,299.863,188.3,299.563Zm-17.183,16.474,2.678,1.449v1.775h-5.517v-5.517h1.164c.021.106.046.212.077.319A3.279,3.279,0,0,0,171.113,316.037Zm-2.838-6.89V303.63h2.955l2.467,5.517Zm.5-11.017.4.9h-.9v-5.517h5.517V294.6a3.175,3.175,0,0,0-2.082-.757,3.165,3.165,0,0,0-2.931,1.934A2.9,2.9,0,0,0,168.771,298.13Zm9.617.9v-5.517H183.9v5.119a3.316,3.316,0,0,0-1.149.275c-.083.037-.163.079-.241.123ZM164.6,291.678a1.841,1.841,0,0,1,1.84-1.84h19.308a1.841,1.841,0,0,1,1.838,1.84v6.191l-.039.015a3.656,3.656,0,0,0-1.524,1.332c-.088-.062-.181-.12-.276-.174V292.6a.919.919,0,0,0-.92-.919h-7.355a.919.919,0,0,0-.92.919v7.356a.907.907,0,0,0,.036.252l-.956-2.135V292.6a.918.918,0,0,0-.918-.919h-7.356a.918.918,0,0,0-.919.919v7.356a.918.918,0,0,0,.919.919H170l.411.92h-3.053a.918.918,0,0,0-.919.92v7.355a.919.919,0,0,0,.919.92h2.815a3.234,3.234,0,0,0-.377.548,3.351,3.351,0,0,0-.175.371h-2.263a.919.919,0,0,0-.919.92v7.355a.919.919,0,0,0,.919.92h7.356a.919.919,0,0,0,.918-.92v-1.7l.92.5v1.2a.921.921,0,0,0,.92.92h2.993l.761.412-.157.07.607,1.356H164.6Zm22.986,36.776a1.842,1.842,0,0,1-1.838,1.84H166.436a1.842,1.842,0,0,1-1.84-1.84v-3.677h17.9l1.574,3.52,3.514-1.572ZM185,325.867l-1.5-3.357,11.857-5.3,1.5,3.357Z" transform="translate(0 0)" fill="#0097cc"/>
  </g>
</svg>
