<svg xmlns="http://www.w3.org/2000/svg" width="55.745" height="44.133" viewBox="0 0 55.745 44.133">
  <g id="clean_code" data-name="clean code" transform="translate(-608 -355.332)">
    <path id="Path_1452" data-name="Path 1452" d="M610,357.827a1.161,1.161,0,1,0,1.162-1.162A1.161,1.161,0,0,0,610,357.827Z" transform="translate(1.484 0.989)" fill="#0097cc"/>
    <path id="Path_1453" data-name="Path 1453" d="M612,357.827a1.161,1.161,0,1,0,1.162-1.162A1.161,1.161,0,0,0,612,357.827Z" transform="translate(2.968 0.989)" fill="#0097cc"/>
    <path id="Path_1454" data-name="Path 1454" d="M614,357.827a1.161,1.161,0,1,0,1.162-1.162A1.161,1.161,0,0,0,614,357.827Z" transform="translate(4.452 0.989)" fill="#0097cc"/>
    <path id="Path_1455" data-name="Path 1455" d="M611.827,362.989h34.841a1.162,1.162,0,1,0,0-2.324H611.827a1.162,1.162,0,0,0,0,2.324Z" transform="translate(1.979 3.957)" fill="#0097cc"/>
    <path id="Path_1456" data-name="Path 1456" d="M611.827,365.654H630.41a1.161,1.161,0,1,0,0-2.322H611.827a1.161,1.161,0,0,0,0,2.322Z" transform="translate(1.979 5.936)" fill="#0097cc"/>
    <path id="Path_1457" data-name="Path 1457" d="M611.827,368.321h25.55a1.161,1.161,0,1,0,0-2.322h-25.55a1.161,1.161,0,0,0,0,2.322Z" transform="translate(1.979 7.915)" fill="#0097cc"/>
    <path id="Path_1458" data-name="Path 1458" d="M611.827,370.989h16.26a1.161,1.161,0,0,0,0-2.322l-16.26,0a1.162,1.162,0,0,0,0,2.324Z" transform="translate(1.979 9.894)" fill="#0097cc"/>
    <path id="Path_1459" data-name="Path 1459" d="M630.41,371.332H611.827a1.162,1.162,0,0,0,0,2.324H630.41a1.162,1.162,0,0,0,0-2.324Z" transform="translate(1.979 11.873)" fill="#0097cc"/>
    <path id="Path_1460" data-name="Path 1460" d="M621.119,374h-9.292a1.161,1.161,0,0,0,0,2.322h9.292a1.161,1.161,0,0,0,0-2.322Z" transform="translate(1.979 13.852)" fill="#0097cc"/>
    <path id="Path_1461" data-name="Path 1461" d="M663.745,385.529,659.1,378.56V357.654a2.323,2.323,0,0,0-2.322-2.322H610.322A2.323,2.323,0,0,0,608,357.654v37.165h37.161l4.648,4.646Zm-11.011,1.16-2.958,7.325-2.9-7.325Zm-5.93-2.322,3-3,3,3Zm8.433,2.322H659.3l-6.811,6.811Zm1.634-2.322,1.8-2.256,1.5,2.256Zm-2-1.221-2.263-2.263h4.073Zm-10.128,0-1.81-2.261H647Zm-3.8-1.033,1.8,2.256h-3.31Zm3.432,4.578,2.665,6.723-6.724-6.723Zm-34.052-29.035h46.457v2.322H610.322Zm0,34.842V362.3h46.457v16.259h-16.26l-4.648,6.972,6.966,6.966Z" fill="#0097cc"/>
  </g>
</svg>
