<svg xmlns="http://www.w3.org/2000/svg" width="71.876" height="75" viewBox="0 0 71.876 75">
  <g id="house_3" data-name="house 3" transform="translate(-160.749 -224)">
    <path id="Path_1432" data-name="Path 1432" d="M198.582,259.626a42.112,42.112,0,0,0-1.425-8.4c-1.327-4.995-2.815-7.221-4.826-7.221s-3.5,2.227-4.823,7.221a42.114,42.114,0,0,0-1.425,8.4,6.261,6.261,0,0,0,4.688,6.052v4.884a1.562,1.562,0,1,0,3.124,0v-4.884A6.261,6.261,0,0,0,198.582,259.626Zm-4.687,2.7v-1.144a1.562,1.562,0,0,0-3.124,0v1.144a3.129,3.129,0,0,1-1.563-2.7,38.588,38.588,0,0,1,1.139-6.886c.848-3.438,1.6-4.835,1.985-5.37.387.534,1.139,1.931,1.99,5.37a38.514,38.514,0,0,1,1.137,6.886A3.129,3.129,0,0,1,193.895,262.331Z" transform="translate(34.043 26.875)" fill="#0097cc"/>
    <path id="Path_1433" data-name="Path 1433" d="M167,244c-2.009,0-3.5,2.227-4.823,7.221a42.155,42.155,0,0,0-1.427,8.4,6.264,6.264,0,0,0,4.688,6.052v4.884a1.563,1.563,0,1,0,3.127,0v-4.884a6.261,6.261,0,0,0,4.688-6.052,42.115,42.115,0,0,0-1.425-8.4C170.5,246.227,169.011,244,167,244Zm1.563,18.331v-1.144a1.563,1.563,0,0,0-3.127,0v1.144a3.132,3.132,0,0,1-1.561-2.7,38.519,38.519,0,0,1,1.137-6.886c.851-3.438,1.6-4.835,1.988-5.37.387.534,1.139,1.931,1.988,5.37a38.515,38.515,0,0,1,1.137,6.886A3.127,3.127,0,0,1,168.563,262.331Z" transform="translate(0 26.875)" fill="#0097cc"/>
    <path id="Path_1434" data-name="Path 1434" d="M215.415,230.251v-4.687A1.561,1.561,0,0,0,213.854,224H166.979a1.563,1.563,0,0,0-1.563,1.563v4.688a1.562,1.562,0,0,0,1.563,1.561v65.625A1.561,1.561,0,0,0,168.54,299h43.751a1.561,1.561,0,0,0,1.563-1.563V231.812A1.56,1.56,0,0,0,215.415,230.251Zm-46.875-3.127h43.751v1.563h-1.563a1.562,1.562,0,1,0-3.124,0h-3.124a1.563,1.563,0,1,0-3.127,0h-3.124a1.562,1.562,0,1,0-3.124,0h-3.127a1.562,1.562,0,1,0-3.124,0h-3.124a1.563,1.563,0,1,0-3.127,0h-3.124a1.562,1.562,0,1,0-3.124,0h-3.127a1.562,1.562,0,1,0-3.124,0H168.54Zm20.313,68.752V284.938h3.124v10.938Zm21.874,0H195.1v-12.5a1.561,1.561,0,0,0-1.563-1.561H187.29a1.56,1.56,0,0,0-1.561,1.561v12.5H170.1V231.812h40.624Z" transform="translate(6.271)" fill="#0097cc"/>
    <path id="Path_1435" data-name="Path 1435" d="M176.563,228.667h-6.251a1.562,1.562,0,0,0-1.563,1.561V239.6a1.563,1.563,0,0,0,1.563,1.563h6.251a1.561,1.561,0,0,0,1.561-1.563v-9.375A1.56,1.56,0,0,0,176.563,228.667ZM175,231.791v1.563h-3.124v-1.563Zm-3.124,6.251v-1.563H175v1.563Z" transform="translate(10.75 6.271)" fill="#0097cc"/>
    <path id="Path_1436" data-name="Path 1436" d="M181.895,228.667h-6.251a1.56,1.56,0,0,0-1.561,1.561V239.6a1.561,1.561,0,0,0,1.561,1.563h6.251a1.561,1.561,0,0,0,1.563-1.563v-9.375A1.561,1.561,0,0,0,181.895,228.667Zm-1.563,3.124v1.563h-3.124v-1.563Zm-3.124,6.251v-1.563h3.124v1.563Z" transform="translate(17.918 6.271)" fill="#0097cc"/>
    <path id="Path_1437" data-name="Path 1437" d="M187.228,228.667h-6.248a1.562,1.562,0,0,0-1.563,1.561V239.6a1.563,1.563,0,0,0,1.563,1.563h6.248a1.561,1.561,0,0,0,1.563-1.563v-9.375A1.561,1.561,0,0,0,187.228,228.667Zm-1.561,3.124v1.563H182.54v-1.563Zm-3.127,6.251v-1.563h3.127v1.563Z" transform="translate(25.084 6.271)" fill="#0097cc"/>
    <path id="Path_1438" data-name="Path 1438" d="M176.563,235.333h-6.251a1.564,1.564,0,0,0-1.563,1.563v9.375a1.564,1.564,0,0,0,1.563,1.563h6.251a1.562,1.562,0,0,0,1.561-1.563V236.9A1.562,1.562,0,0,0,176.563,235.333ZM175,238.46v1.561h-3.124V238.46Zm-3.124,6.248v-1.561H175v1.561Z" transform="translate(10.75 15.229)" fill="#0097cc"/>
    <path id="Path_1439" data-name="Path 1439" d="M181.895,235.333h-6.251a1.562,1.562,0,0,0-1.561,1.563v9.375a1.562,1.562,0,0,0,1.561,1.563h6.251a1.563,1.563,0,0,0,1.563-1.563V236.9A1.563,1.563,0,0,0,181.895,235.333Zm-1.563,3.127v1.561h-3.124V238.46Zm-3.124,6.248v-1.561h3.124v1.561Z" transform="translate(17.918 15.229)" fill="#0097cc"/>
    <path id="Path_1440" data-name="Path 1440" d="M187.228,235.333h-6.248a1.564,1.564,0,0,0-1.563,1.563v9.375a1.564,1.564,0,0,0,1.563,1.563h6.248a1.563,1.563,0,0,0,1.563-1.563V236.9A1.563,1.563,0,0,0,187.228,235.333Zm-1.561,3.127v1.561H182.54V238.46Zm-3.127,6.248v-1.561h3.127v1.561Z" transform="translate(25.084 15.229)" fill="#0097cc"/>
    <path id="Path_1441" data-name="Path 1441" d="M176.563,242h-6.251a1.563,1.563,0,0,0-1.563,1.563v9.375a1.562,1.562,0,0,0,1.563,1.561h6.251a1.56,1.56,0,0,0,1.561-1.561v-9.375A1.561,1.561,0,0,0,176.563,242ZM175,245.124v1.563h-3.124v-1.563Zm-3.124,6.251v-1.563H175v1.563Z" transform="translate(10.75 24.188)" fill="#0097cc"/>
    <path id="Path_1442" data-name="Path 1442" d="M181.895,242h-6.251a1.561,1.561,0,0,0-1.561,1.563v9.375a1.56,1.56,0,0,0,1.561,1.561h6.251a1.561,1.561,0,0,0,1.563-1.561v-9.375A1.561,1.561,0,0,0,181.895,242Zm-1.563,3.124v1.563h-3.124v-1.563Zm-3.124,6.251v-1.563h3.124v1.563Z" transform="translate(17.918 24.188)" fill="#0097cc"/>
    <path id="Path_1443" data-name="Path 1443" d="M187.228,242h-6.248a1.563,1.563,0,0,0-1.563,1.563v9.375a1.562,1.562,0,0,0,1.563,1.561h6.248a1.561,1.561,0,0,0,1.563-1.561v-9.375A1.561,1.561,0,0,0,187.228,242Zm-1.561,3.124v1.563H182.54v-1.563Zm-3.127,6.251v-1.563h3.127v1.563Z" transform="translate(25.084 24.188)" fill="#0097cc"/>
    <path id="Path_1444" data-name="Path 1444" d="M187.228,248.667h-6.248a1.562,1.562,0,0,0-1.563,1.561V259.6a1.563,1.563,0,0,0,1.563,1.563h6.248a1.561,1.561,0,0,0,1.563-1.563v-9.375A1.561,1.561,0,0,0,187.228,248.667Zm-1.561,3.124v1.563H182.54v-1.563Zm-3.127,6.251v-1.563h3.127v1.563Z" transform="translate(25.084 33.146)" fill="#0097cc"/>
    <path id="Path_1445" data-name="Path 1445" d="M176.563,248.667h-6.251a1.562,1.562,0,0,0-1.563,1.561V259.6a1.563,1.563,0,0,0,1.563,1.563h6.251a1.561,1.561,0,0,0,1.561-1.563v-9.375A1.56,1.56,0,0,0,176.563,248.667ZM175,251.791v1.563h-3.124v-1.563Zm-3.124,6.251v-1.563H175v1.563Z" transform="translate(10.75 33.146)" fill="#0097cc"/>
  </g>
</svg>
