<svg xmlns="http://www.w3.org/2000/svg" width="62.267" height="44.133" viewBox="0 0 62.267 44.133">
  <g id="marketing" transform="translate(-416 -293.59)">
    <path id="Path_1448" data-name="Path 1448" d="M451.117,302.922H444.63a1.3,1.3,0,0,0,0,2.594h6.487a1.3,1.3,0,0,0,0-2.594Z" transform="translate(25.854 8.828)" fill="#0097cc"/>
    <path id="Path_1449" data-name="Path 1449" d="M444.63,304.112a1.282,1.282,0,0,0,.482-.093h0l.021-.008,0,0,6.46-2.584h0a1.3,1.3,0,0,0-.481-2.5,1.323,1.323,0,0,0-.483.093h0l-.021.01h0l-6.462,2.584v0a1.3,1.3,0,0,0,.481,2.5Z" transform="translate(25.854 5.044)" fill="#0097cc"/>
    <path id="Path_1450" data-name="Path 1450" d="M464,306.186v-11.3a1.3,1.3,0,0,0-2.594,0v.78l-23.35,7H423.783a1.3,1.3,0,0,0-1.3,1.3v2.594H418.6a1.3,1.3,0,0,0-1.3,1.3v2.594a1.3,1.3,0,0,0-1.3,1.3h0v2.594h0a1.3,1.3,0,0,0,1.3,1.3v2.594a1.3,1.3,0,0,0,1.3,1.3h3.892v2.6a1.3,1.3,0,0,0,1.3,1.3h1.835l3.355,14.3h11.675l-3.236-9.288a1.294,1.294,0,0,0,.056-2.2l1.263-2.607,22.673,6.8v.776a1.3,1.3,0,1,0,2.594,0V319.665a7.781,7.781,0,0,0,0-13.479Zm-44.106,10.753v-7.783h2.6v7.783Zm5.19-11.675h12.973v15.567H425.081Zm5.95,29.865-2.748-11.7h7.661l-1.288,2.668-.469.969.352,1.014L437,335.129Zm9.616-13.635v-1.831l.025-.047h-.025V304.6l20.756-6.227v29.347ZM464,316.351V309.5a5.172,5.172,0,0,1,0,6.853Z" transform="translate(0)" fill="#0097cc"/>
    <path id="Path_1451" data-name="Path 1451" d="M451.6,308.276h0l-6.46-2.584,0,0-.021-.008h0a1.3,1.3,0,0,0-1.778,1.2,1.3,1.3,0,0,0,.815,1.2h0l6.46,2.586.006,0,.019.008h0a1.323,1.323,0,0,0,.483.093,1.3,1.3,0,0,0,.481-2.5Z" transform="translate(25.854 11.35)" fill="#0097cc"/>
  </g>
</svg>
