<svg xmlns="http://www.w3.org/2000/svg" width="71.874" height="75" viewBox="0 0 71.874 75">
  <g id="contract" transform="translate(-672.667 -224)">
    <path id="Path_1420" data-name="Path 1420" d="M718.626,224.916l-.914-.916H672.667v75h56.25V235.205l-.916-.914Zm-.647,3.771,6.251,6.251h-6.251Zm-42.187,67.188V227.124h39.063v10.938H725.79v57.813Z" fill="#0097cc"/>
    <path id="Path_1421" data-name="Path 1421" d="M712.6,241.333H678.228a1.563,1.563,0,0,0,0,3.127H712.6a1.563,1.563,0,0,0,0-3.127Z" transform="translate(5.375 23.291)" fill="#0097cc"/>
    <path id="Path_1422" data-name="Path 1422" d="M712.6,245.333H678.228a1.563,1.563,0,0,0,0,3.127H712.6a1.563,1.563,0,0,0,0-3.127Z" transform="translate(5.375 28.666)" fill="#0097cc"/>
    <path id="Path_1423" data-name="Path 1423" d="M695.417,249.333H678.228a1.563,1.563,0,0,0,0,3.127h17.189a1.563,1.563,0,0,0,0-3.127Z" transform="translate(5.375 34.041)" fill="#0097cc"/>
    <path id="Path_1424" data-name="Path 1424" d="M710.5,234.237a6.25,6.25,0,1,0-12.5,0v42.187h1.938L698,283.2l6.251,4.165L710.5,283.2l-1.936-6.771H710.5Zm-9.375,0a3.125,3.125,0,1,1,6.251,0V273.3h-6.251Zm5.742,47.625-2.616,1.744-2.618-1.744,1.556-5.437h2.121Z" transform="translate(34.041 5.356)" fill="#0097cc"/>
    <path id="Path_1425" data-name="Path 1425" d="M678.228,242.063a1.559,1.559,0,0,0,1.106-.457l.457-.459v7.167a1.562,1.562,0,0,0,1.563,1.561h15.6a1.562,1.562,0,0,0,1.563-1.561V241.12l.483.485a1.564,1.564,0,0,0,2.212-2.21l-10.929-10.938a1.567,1.567,0,0,0-2.213,0l-.009.009-.009.009L677.124,239.4a1.561,1.561,0,0,0,1.1,2.667Zm17.161,4.687h-4.648v-4.687a1.562,1.562,0,1,0-3.124,0v4.687h-4.7v-8.726l6.26-6.253,6.213,6.223Z" transform="translate(5.375 5.375)" fill="#0097cc"/>
  </g>
</svg>
