<svg xmlns="http://www.w3.org/2000/svg" width="44.62" height="44.617" viewBox="0 0 44.62 44.617">
  <path id="data_analysis" data-name="data analysis" d="M268.228,202.933l-11.862-11.862a18.582,18.582,0,1,0-1.315,1.313l11.972,11.972.01-.01a.929.929,0,1,0,1.195-1.414ZM249.1,163.173a16.79,16.79,0,0,1,1.856.924l-7.439,4.295v-2.147l5.43-3.135Zm-5.583,11.66,11.964-6.906a16.4,16.4,0,0,1,1.111,1.5l-13.075,7.548Zm0-2.147v-2.147l9.167-5.292a16.935,16.935,0,0,1,1.5,1.283Zm0-8.588v-2.213a16.774,16.774,0,0,1,3.052.45Zm14.006,6.943q.257.51.481,1.037.142.337.269.678l-11.966,6.908-1.86-1.074Zm1.311,3.538a16.544,16.544,0,0,1,.358,1.94l-9.168,5.293-1.859-1.074Zm.485,4.013a17.224,17.224,0,0,1-.148,2.234l-5.428,3.133-1.859-1.074Zm-.664,4.678a16.456,16.456,0,0,1-.651,1.832q-.224.529-.481,1.037l-1.92-1.109ZM242.59,195.32a16.73,16.73,0,0,1-.93-33.435v16.7h0a.929.929,0,0,0,.466.8h0l14.469,8.352a16.7,16.7,0,0,1-14,7.573Z" transform="translate(-224 -160.002)" fill="#0097cc"/>
</svg>
